# xmcd CD database file
#
# Track frame offsets:
#	150
#	12900
#	27000
#	42525
#	55487
#	71625
#	85575
#	101475
#	114150
#	129075
#	144900
#	159950
#	174675
#	192750
#	203850
#	216450
#
# Disc length: 3077 seconds
#
# Revision: 0
# Processed by: cddbd v1.5.1PL0 Copyright (c) Steve Scherf et al.
# Submitted via: CDex 1.50beta9
#
DISCID=d40c0310
DTITLE=JIM ED HUSTON - The Closest Thing To My Heart
DYEAR=1900
DGENRE=Country
TTITLE0=Love Me Or Leave Me
TTITLE1=Rainbow And Roses
TTITLE2=Closest Thing To My Heart
TTITLE3=White Fences And Evergreen Trees
TTITLE4=Make Somebody's Day
TTITLE5=In The Middle Of Nowhere
TTITLE6=Leprechaun
TTITLE7=Brod  ( The Brother)
TTITLE8=Seashores Of Old Mexico
TTITLE9=Laharn Cross
TTITLE10=I Wouldn't Want To Live (If You Didn't Love Me
TTITLE11=Butterfly
TTITLE12=Sonny's Dream
TTITLE13=Heaven Says Hello
TTITLE14=Four Walls
TTITLE15=Sing A Travelling Song
EXTD=
EXTT0=
EXTT1=
EXTT2=
EXTT3=
EXTT4=
EXTT5=
EXTT6=
EXTT7=
EXTT8=
EXTT9=
EXTT10=
EXTT11=
EXTT12=
EXTT13=
EXTT14=
EXTT15=
PLAYORDER=
